<svg width="10" height="20" viewBox="0 0 10 20" fill="none" xmlns="http://www.w3.org/2000/svg">
<path fill-rule="evenodd" clip-rule="evenodd" d="M8.46625 17.931H9.31384C9.66246 17.931 9.94591 18.2145 9.94591 18.5631V19.3679C9.94591 19.7166 9.66246 20 9.31384 20H0.922803C0.574182 20 0.290733 19.7166 0.290733 19.3679V18.5631C0.290733 18.2145 0.574182 17.931 0.922803 17.931H1.77004L2.23246 16.6059C2.34694 16.2034 2.81556 15.9293 3.2397 15.8738L3.79625 15.3172C3.88901 15.2245 3.90798 15.0803 3.8428 14.9669C3.29487 14.0103 3.48315 12.7141 3.64453 12.0266C3.66729 11.9283 3.64108 11.8241 3.57694 11.7617C2.60729 10.8179 3.04418 9.27828 3.06315 9.21345L3.07901 9.17035C3.13349 9.04759 3.17039 8.90897 3.18867 8.75724C3.25694 8.19345 2.9228 7.71138 2.71763 7.47414C1.92487 6.55793 2.09315 5.00241 2.26418 4.15621C2.34315 3.76586 2.63108 3.45552 3.01591 3.34552L4.20453 3.00586C3.92108 2.69 3.73901 2.23517 3.73901 1.72414C3.73901 0.773448 4.35763 0 5.11832 0C5.87901 0 6.49763 0.773448 6.49763 1.72414C6.49763 2.23517 6.31556 2.69 6.03211 3.00586L7.22108 3.34552C7.60556 3.45552 7.8935 3.76586 7.97246 4.15621C8.1435 5.00241 8.31177 6.55793 7.51901 7.47414C7.31384 7.71138 6.9797 8.19345 7.04798 8.75724C7.06625 8.90897 7.10315 9.04759 7.15763 9.17035L7.17315 9.21345C7.19246 9.27828 7.62936 10.8179 6.6597 11.7617C6.59556 11.8241 6.56901 11.9283 6.59211 12.0266C6.75349 12.7141 6.94177 14.0103 6.39384 14.9669C6.32867 15.0803 6.34763 15.2245 6.44039 15.3172L6.99694 15.8738C7.42108 15.9297 7.89039 16.2055 8.01005 16.6248L8.46625 17.931ZM3.39418 16.5517C3.18108 16.5517 2.92073 16.7041 2.8897 16.8141L2.50039 17.931H7.73625L7.3528 16.8328C7.31591 16.7041 7.05556 16.5517 6.84246 16.5517H3.39418Z" fill="#0C1932" fill-opacity="0.6"/>
</svg>
